<svg width="30.815918" height="34.614258" viewBox="0 0 30.8159 34.6143" fill="none" xmlns="http://www.w3.org/2000/svg" xmlns:xlink="http://www.w3.org/1999/xlink">
	<desc>
			Created with Pixso.
	</desc>
	<defs>
		<clipPath id="clip1_880">
			<rect width="30.816050" height="34.613968" fill="white" fill-opacity="0"/>
		</clipPath>
	</defs>
	<rect width="30.816050" height="34.613968" fill="#FFFFFF" fill-opacity="0"/>
	<g clip-path="url(#clip1_880)">
		<path d="M30.76 19.61L28.42 4.71C28.1 2.68 26.38 1.33 24.58 1.68L4.51 5.66C2.71 6.01 1.5 7.95 1.82 9.98L1.99 11.07C0.82 11.65 0 12.96 0 14.49L0 29.25C0 31.31 1.48 32.98 3.31 32.98L23.23 32.98C25.06 32.98 26.55 31.31 26.55 29.25L26.55 24.23L28.07 23.93C28.94 23.76 29.7 23.21 30.21 22.4C30.72 21.58 30.91 20.59 30.76 19.61ZM28.73 21.23C28.5 21.6 28.15 21.85 27.75 21.93L26.55 22.16L26.55 21L26.55 16.39L26.55 14.49C26.55 12.43 25.06 10.76 23.23 10.76L3.78 10.76L3.6 9.62C3.53 9.18 3.62 8.73 3.85 8.36C4.08 7.99 4.43 7.74 4.83 7.66L24.89 3.69C24.98 3.67 25.07 3.66 25.15 3.66C25.87 3.66 26.51 4.24 26.64 5.06L28.98 19.96C29.05 20.41 28.96 20.86 28.73 21.23ZM23.23 30.94L3.31 30.94C2.48 30.94 1.81 30.18 1.81 29.25L1.81 22.02L24.74 22.02L24.74 29.25C24.74 30.18 24.06 30.94 23.23 30.94ZM3.31 12.8L23.23 12.8C24.06 12.8 24.74 13.56 24.74 14.49L24.74 15.37L1.81 15.37L1.81 14.49C1.81 13.56 2.48 12.8 3.31 12.8ZM24.74 17.41L24.74 19.99L1.81 19.99L1.81 17.41L24.74 17.41Z" fill="#041E42" fill-opacity="1.000000" fill-rule="nonzero"/>
		<path d="M8.71 26.86L4.6 26.86C4.1 26.86 3.69 27.32 3.69 27.88C3.69 28.44 4.1 28.89 4.6 28.89L8.71 28.89C9.21 28.89 9.61 28.44 9.61 27.88C9.61 27.32 9.21 26.86 8.71 26.86Z" fill="#041E42" fill-opacity="1.000000" fill-rule="nonzero"/>
	</g>
</svg>
