<svg width="30.815918" height="34.614258" viewBox="0 0 30.8159 34.6143" fill="none" xmlns="http://www.w3.org/2000/svg" xmlns:xlink="http://www.w3.org/1999/xlink">
	<desc>
			Created with Pixso.
	</desc>
	<defs>
		<clipPath id="clip1_857">
			<rect width="30.816050" height="34.613968" fill="white" fill-opacity="0"/>
		</clipPath>
	</defs>
	<rect width="30.816050" height="34.613968" fill="#FFFFFF" fill-opacity="0"/>
	<g clip-path="url(#clip1_857)">
		<path d="M12.2 22.45L21.6 22.45C22.67 18.93 27.11 18.96 28.16 22.45L28.94 22.45L28.94 17.37C28.94 16.74 28.48 16.22 27.92 16.22C25.61 16.22 23.31 16.22 21 16.22C20.5 16.22 20.09 15.77 20.09 15.21L20.09 9.12L4.62 9.12L4.62 10.34L6.28 10.34C7.47 10.34 7.47 12.37 6.28 12.37L4.62 12.37L4.62 14.33L8.95 14.33C10.14 14.33 10.14 16.36 8.95 16.36L4.62 16.36L4.62 22.45L5.65 22.45C6.71 18.93 11.15 18.96 12.2 22.45ZM2.81 12.37L1.73 12.37C0.54 12.37 0.54 10.34 1.73 10.34L2.81 10.34L2.81 8.11C2.81 7.55 3.22 7.09 3.72 7.09C5.1 7.09 20.29 7.1 20.29 7.09C22.76 7.09 24.92 8.47 26.18 10.86L27.95 14.2C29.5 14.21 30.75 15.63 30.75 17.37L30.75 23.46C30.75 24.02 30.35 24.47 29.85 24.47L28.27 24.47C27.95 26.27 26.54 27.59 24.88 27.59C23.22 27.59 21.81 26.27 21.49 24.47L12.32 24.47C11.99 26.27 10.59 27.59 8.93 27.59C7.26 27.59 5.86 26.27 5.53 24.47L3.72 24.47C3.22 24.47 2.81 24.02 2.81 23.46L2.81 20.42L0.83 20.42C-0.36 20.42 -0.36 18.39 0.83 18.39L2.81 18.39L2.81 16.36L0.83 16.36C-0.36 16.36 -0.36 14.33 0.83 14.33L2.81 14.33L2.81 12.37ZM26.05 22.38C26.7 23.11 26.7 24.29 26.05 25.01C25.01 26.18 23.22 25.35 23.22 23.7C23.22 22.04 25.01 21.21 26.05 22.38ZM25.86 14.2L21.9 14.2L21.9 9.4C23.05 9.81 23.99 10.68 24.64 11.9L25.86 14.2ZM10.1 22.38C10.74 23.11 10.74 24.29 10.1 25.01C9.06 26.18 7.27 25.35 7.27 23.7C7.27 22.04 9.06 21.21 10.1 22.38Z" fill="#041E42" fill-opacity="1.000000" fill-rule="evenodd"/>
	</g>
</svg>
