<svg width="30.815918" height="34.614258" viewBox="0 0 30.8159 34.6143" fill="none" xmlns="http://www.w3.org/2000/svg" xmlns:xlink="http://www.w3.org/1999/xlink">
	<desc>
			Created with Pixso.
	</desc>
	<defs>
		<clipPath id="clip1_872">
			<rect width="30.816050" height="34.613968" fill="white" fill-opacity="0"/>
		</clipPath>
	</defs>
	<rect width="30.816050" height="34.613968" fill="#FFFFFF" fill-opacity="0"/>
	<g clip-path="url(#clip1_872)">
		<path d="M15.4 0C7.94 0 1.86 6.82 1.86 15.21C1.86 16.14 1.86 23.33 1.86 23.45C1.86 25.13 3.08 26.5 4.57 26.5L5.63 26.5C6 27.68 7 28.52 8.18 28.52C9.67 28.52 10.89 27.16 10.89 25.48L10.89 17.23C10.89 15.56 9.67 14.19 8.18 14.19C7 14.19 6 15.04 5.63 16.22L4.57 16.22C4.25 16.22 3.95 16.28 3.67 16.39L3.67 15.21C3.67 7.94 8.93 2.02 15.4 2.02C21.87 2.02 27.14 7.94 27.14 15.21L27.14 16.39C26.86 16.28 26.55 16.22 26.24 16.22L25.18 16.22C24.81 15.04 23.8 14.19 22.63 14.19C21.13 14.19 19.92 15.56 19.92 17.23L19.92 25.48C19.92 27.16 21.13 28.52 22.63 28.52C22.9 28.52 23.16 28.48 23.41 28.39C23.07 29.64 22.04 30.55 20.82 30.55L17.96 30.55C17.58 29.37 16.58 28.52 15.4 28.52C13.91 28.52 12.7 29.89 12.7 31.57C12.7 33.24 13.91 34.61 15.4 34.61C16.58 34.61 17.58 33.76 17.96 32.58L20.82 32.58C23.31 32.58 25.33 30.31 25.33 27.51L25.33 26.5L26.24 26.5C27.73 26.5 28.95 25.13 28.95 23.45C28.95 23.33 28.95 16.13 28.95 15.21C28.95 6.82 22.87 0 15.4 0ZM7.28 17.23C7.28 16.68 7.68 16.22 8.18 16.22C8.68 16.22 9.08 16.68 9.08 17.23L9.08 25.48C9.08 26.04 8.68 26.5 8.18 26.5C7.68 26.5 7.28 26.04 7.28 25.48L7.28 17.23ZM4.57 18.25L5.47 18.25L5.47 24.47L4.57 24.47C4.07 24.47 3.67 24.01 3.67 23.45L3.67 19.26C3.67 18.7 4.07 18.25 4.57 18.25ZM15.4 32.58C14.91 32.58 14.5 32.13 14.5 31.57C14.5 31.01 14.91 30.55 15.4 30.55C15.9 30.55 16.31 31.01 16.31 31.57C16.31 32.13 15.9 32.58 15.4 32.58ZM23.53 25.48C23.53 26.04 23.12 26.5 22.63 26.5C22.13 26.5 21.72 26.04 21.72 25.48L21.72 17.23C21.72 16.68 22.13 16.22 22.63 16.22C23.12 16.22 23.53 16.68 23.53 17.23L23.53 25.48ZM27.14 23.45C27.14 24.01 26.74 24.47 26.24 24.47L25.33 24.47L25.33 18.25L26.24 18.25C26.74 18.25 27.14 18.7 27.14 19.26L27.14 23.45Z" fill="#041E42" fill-opacity="1.000000" fill-rule="nonzero"/>
	</g>
</svg>
