<svg width="37.714355" height="40.000000" viewBox="0 0 37.7144 40" fill="none" xmlns="http://www.w3.org/2000/svg" xmlns:xlink="http://www.w3.org/1999/xlink">
	<desc>
			Created with Pixso.
	</desc>
	<defs>
		<clipPath id="clip1_1624">
			<rect id="star 1" width="18.857143" height="20.000000" transform="translate(9.428223 10.000000)" fill="white" fill-opacity="0"/>
		</clipPath>
	</defs>
	<rect id="Rectangle 314" rx="18.857143" width="37.714287" height="40.000000" fill="#FFFFFF" fill-opacity="1.000000"/>
	<rect id="Rectangle 314" x="1.000000" y="1.000000" rx="17.857143" width="35.714287" height="38.000000" stroke="#F5C34B" stroke-opacity="1.000000" stroke-width="2.000000"/>
	<rect id="star 1" width="18.857143" height="20.000000" transform="translate(9.428223 10.000000)" fill="#FFFFFF" fill-opacity="0"/>
	<g clip-path="url(#clip1_1624)">
		<path id="Vector" d="M27.61 19.12C28.38 18.33 27.96 16.95 26.9 16.79L22.8 16.16C22.39 16.1 22.02 15.82 21.84 15.41L20 11.48C19.53 10.46 18.17 10.46 17.7 11.48L15.87 15.41C15.68 15.82 15.32 16.1 14.9 16.16L10.8 16.79C9.75 16.95 9.33 18.33 10.09 19.12L13.05 22.18C13.36 22.5 13.5 22.95 13.42 23.39L12.72 27.72C12.54 28.83 13.65 29.68 14.59 29.16L18.25 27.11C18.63 26.9 19.08 26.9 19.45 27.11L23.12 29.16C24.06 29.68 25.16 28.83 24.98 27.72L24.28 23.39C24.21 22.95 24.35 22.5 24.65 22.18L27.61 19.12Z" fill="#F4E64C" fill-opacity="1.000000" fill-rule="nonzero"/>
		<path id="Vector" d="M14.2 28.11L14.9 23.78C14.97 23.34 14.83 22.89 14.53 22.57L11.56 19.51C10.8 18.72 11.22 17.35 12.27 17.18L16.37 16.55C16.79 16.49 17.15 16.21 17.34 15.81L19.17 11.87C19.32 11.54 19.57 11.32 19.84 11.21C19.27 10.47 18.12 10.56 17.7 11.48L15.87 15.42C15.68 15.82 15.32 16.1 14.9 16.16L10.8 16.79C9.75 16.95 9.33 18.33 10.09 19.12L13.05 22.18C13.36 22.5 13.5 22.95 13.42 23.39L12.72 27.72C12.55 28.79 13.56 29.61 14.47 29.21C14.25 28.92 14.13 28.54 14.2 28.11Z" fill="#FAB659" fill-opacity="1.000000" fill-rule="nonzero"/>
		<path id="Vector" d="M15.29 19.1L15.29 19.73C15.29 19.9 15.41 20.03 15.57 20.03C15.72 20.03 15.84 19.9 15.84 19.73L15.84 19.1C15.84 18.94 15.72 18.81 15.57 18.81C15.41 18.81 15.29 18.94 15.29 19.1Z" fill="#000000" fill-opacity="1.000000" fill-rule="nonzero"/>
		<path id="Vector" d="M22.41 19.73L22.41 19.1C22.41 18.94 22.29 18.81 22.14 18.81C21.99 18.81 21.86 18.94 21.86 19.1L21.86 19.73C21.86 19.9 21.99 20.03 22.14 20.03C22.29 20.03 22.41 19.9 22.41 19.73Z" fill="#000000" fill-opacity="1.000000" fill-rule="nonzero"/>
		<path id="Vector" d="M18.85 20.36C19.25 20.36 19.62 20.19 19.87 19.88C19.97 19.76 19.96 19.58 19.84 19.47C19.73 19.36 19.56 19.38 19.45 19.5C19.31 19.68 19.09 19.78 18.85 19.78C18.62 19.78 18.4 19.68 18.25 19.5C18.15 19.38 17.97 19.36 17.86 19.47C17.74 19.58 17.73 19.76 17.83 19.88C18.08 20.19 18.46 20.36 18.85 20.36Z" fill="#000000" fill-opacity="1.000000" fill-rule="nonzero"/>
		<path id="Vector" d="M13.15 23.34L12.45 27.67C12.35 28.3 12.59 28.92 13.07 29.29C13.56 29.66 14.19 29.71 14.72 29.41L18.38 27.37C18.68 27.21 19.03 27.21 19.32 27.37C19.32 27.37 22.99 29.41 22.99 29.41C23.5 29.7 24.15 29.66 24.63 29.29C25.12 28.92 25.35 28.3 25.25 27.67L24.93 25.7C24.91 25.54 24.76 25.43 24.61 25.46C24.46 25.48 24.36 25.63 24.39 25.79L24.71 27.77C24.77 28.18 24.62 28.57 24.31 28.82C23.99 29.06 23.59 29.09 23.24 28.9L19.58 26.85C19.12 26.6 18.58 26.6 18.13 26.85L14.46 28.9C14.11 29.09 13.72 29.06 13.4 28.82C13.08 28.57 12.93 28.18 13 27.77L13.7 23.44C13.78 22.9 13.62 22.35 13.25 21.97L10.28 18.91C10 18.62 9.9 18.21 10.03 17.81C10.15 17.41 10.45 17.14 10.84 17.08L14.94 16.45C15.45 16.37 15.89 16.04 16.11 15.55L16.96 13.72C17.03 13.57 16.98 13.4 16.84 13.33C16.7 13.26 16.54 13.32 16.47 13.46L15.62 15.29C15.47 15.6 15.19 15.82 14.86 15.87L10.76 16.5C10.17 16.59 9.69 17.03 9.5 17.63C9.32 18.23 9.47 18.88 9.9 19.33L12.86 22.39C13.1 22.64 13.21 22.99 13.15 23.34Z" fill="#000000" fill-opacity="1.000000" fill-rule="nonzero"/>
		<path id="Vector" d="M26.94 16.5L22.84 15.87C22.52 15.82 22.23 15.6 22.08 15.29L20.25 11.35C19.99 10.78 19.45 10.42 18.85 10.42C18.25 10.42 17.72 10.78 17.45 11.35L16.99 12.35C16.92 12.5 16.97 12.67 17.11 12.74C17.25 12.81 17.41 12.75 17.48 12.61L17.95 11.61C18.12 11.23 18.46 11.01 18.85 11.01C19.24 11.01 19.58 11.23 19.76 11.61L21.59 15.55C21.82 16.04 22.26 16.37 22.76 16.45L26.86 17.08C27.25 17.14 27.56 17.41 27.68 17.81C27.8 18.21 27.7 18.62 27.42 18.91L24.46 21.97C24.09 22.35 23.92 22.9 24.01 23.44C24.01 23.44 24.16 24.37 24.16 24.37C24.18 24.53 24.33 24.64 24.48 24.61C24.63 24.58 24.73 24.43 24.7 24.27L24.55 23.34C24.5 22.99 24.6 22.64 24.84 22.39L27.81 19.33C28.24 18.88 28.39 18.23 28.2 17.63C28.02 17.03 27.54 16.59 26.94 16.5Z" fill="#000000" fill-opacity="1.000000" fill-rule="nonzero"/>
	</g>
</svg>
