<svg width="18.310547" height="21.757812" viewBox="0 0 18.3105 21.7578" fill="none" xmlns="http://www.w3.org/2000/svg" xmlns:xlink="http://www.w3.org/1999/xlink">
	<desc>
			Created with Pixso.
	</desc>
	<defs>
		<clipPath id="clip11_1089">
			<rect width="18.310688" height="21.757355" transform="translate(18.310547 21.757812) rotate(-179.999985)" fill="white" fill-opacity="0"/>
		</clipPath>
	</defs>
	<rect width="18.310688" height="21.757355" transform="translate(18.310547 21.757812) rotate(-179.999985)" fill="#FFFFFF" fill-opacity="0"/>
	<g clip-path="url(#clip11_1089)">
		<path d="M4.41 11.47L12.88 21.51C13.16 21.84 13.61 21.83 13.89 21.5C14.16 21.18 14.16 20.64 13.89 20.31L5.92 10.87L13.89 1.44C14.16 1.11 14.16 0.57 13.89 0.24C13.75 0.08 13.57 0 13.39 0C13.2 0 13.02 0.08 12.88 0.24L4.41 10.28C4.28 10.44 4.21 10.65 4.21 10.87C4.21 11.1 4.28 11.31 4.41 11.47Z" fill="#112137" fill-opacity="1.000000" fill-rule="nonzero"/>
	</g>
</svg>
