<svg width="30.815918" height="34.614258" viewBox="0 0 30.8159 34.6143" fill="none" xmlns="http://www.w3.org/2000/svg" xmlns:xlink="http://www.w3.org/1999/xlink">
	<desc>
			Created with Pixso.
	</desc>
	<defs>
		<clipPath id="clip1_863">
			<rect width="30.816050" height="34.613968" fill="white" fill-opacity="0"/>
		</clipPath>
	</defs>
	<rect width="30.816050" height="34.613968" fill="#FFFFFF" fill-opacity="0"/>
	<g clip-path="url(#clip1_863)">
		<path d="M28.49 9.39L28.49 9.36C28.48 9.03 28.47 8.68 28.46 8.28C28.44 6.38 27.09 4.8 25.39 4.69C21.85 4.47 19.11 3.17 16.76 0.61L16.74 0.58C15.98 -0.2 14.83 -0.2 14.06 0.58L14.04 0.61C11.7 3.17 8.96 4.47 5.42 4.69C3.72 4.8 2.37 6.38 2.34 8.28C2.34 8.67 2.33 9.03 2.31 9.36L2.31 9.42C2.24 13.48 2.16 18.53 3.66 23.12C4.49 25.64 5.74 27.83 7.39 29.63C9.26 31.68 11.71 33.31 14.67 34.47C14.77 34.51 14.87 34.54 14.97 34.56C15.11 34.59 15.26 34.61 15.4 34.61C15.55 34.61 15.69 34.59 15.84 34.56C15.94 34.54 16.04 34.51 16.14 34.47C19.1 33.31 21.54 31.68 23.41 29.63C25.06 27.82 26.31 25.63 27.14 23.11C28.65 18.51 28.56 13.45 28.49 9.39ZM25.44 22.41C23.85 27.24 20.62 30.56 15.54 32.55C15.52 32.56 15.5 32.56 15.48 32.57C15.43 32.58 15.38 32.58 15.32 32.57C15.3 32.56 15.29 32.56 15.27 32.55C10.19 30.56 6.95 27.25 5.36 22.41C3.97 18.19 4.05 13.55 4.12 9.46L4.12 9.44C4.14 9.09 4.15 8.72 4.15 8.31C4.16 7.47 4.76 6.77 5.52 6.72C7.52 6.59 9.29 6.16 10.9 5.39C12.52 4.62 13.96 3.54 15.29 2.08C15.36 2.01 15.45 2.01 15.52 2.08C16.85 3.54 18.29 4.62 19.9 5.39C21.52 6.16 23.28 6.59 25.29 6.72C26.04 6.77 26.65 7.47 26.66 8.31C26.66 8.72 26.67 9.09 26.69 9.44C26.75 13.53 26.83 18.17 25.44 22.41Z" fill="#041E42" fill-opacity="1.000000" fill-rule="nonzero"/>
		<path d="M15.4 8.68C11.17 8.68 7.72 12.55 7.72 17.3C7.72 22.06 11.17 25.93 15.4 25.93C19.64 25.93 23.08 22.06 23.08 17.3C23.08 12.55 19.64 8.68 15.4 8.68ZM15.4 23.9C12.16 23.9 9.53 20.94 9.53 17.3C9.53 13.67 12.16 10.71 15.4 10.71C18.64 10.71 21.27 13.67 21.27 17.3C21.27 20.94 18.64 23.9 15.4 23.9Z" fill="#041E42" fill-opacity="1.000000" fill-rule="nonzero"/>
		<path d="M17.61 14.62L14.04 18.63L13.08 17.54C12.72 17.15 12.15 17.15 11.8 17.54C11.44 17.94 11.44 18.58 11.8 18.98L13.4 20.79C13.58 20.98 13.81 21.08 14.04 21.08C14.27 21.08 14.51 20.98 14.68 20.79L18.89 16.06C19.24 15.66 19.24 15.02 18.89 14.62C18.54 14.23 17.96 14.23 17.61 14.62Z" fill="#041E42" fill-opacity="1.000000" fill-rule="nonzero"/>
	</g>
</svg>
